<?xml version="1.0" encoding="UTF-8"?>
<svg id="Layer_1" xmlns="http://www.w3.org/2000/svg" xmlns:xlink="http://www.w3.org/1999/xlink" version="1.1" viewBox="0 0 900 600">
  <!-- Generator: Adobe Illustrator 29.3.1, SVG Export Plug-In . SVG Version: 2.1.0 Build 151)  -->
  <defs>
    <style>
      .st0 {
        stroke-dasharray: 5 5;
      }

      .st0, .st1, .st2, .st3, .st4, .st5, .st6, .st7, .st8, .st9, .st10, .st11 {
        stroke-width: 2px;
      }

      .st0, .st6 {
        fill: none;
        stroke: #555;
      }

      .st12 {
        fill: #f06a35;
      }

      .st13, .st2, .st14 {
        fill: #ff9800;
      }

      .st13, .st15, .st16, .st17, .st18, .st14, .st19, .st20, .st21 {
        isolation: isolate;
      }

      .st13, .st16, .st17, .st18, .st22 {
        font-size: 14px;
      }

      .st13, .st18, .st22 {
        font-family: ArialMT, Arial;
      }

      .st23 {
        fill-rule: evenodd;
      }

      .st23, .st24, .st3, .st25, .st26, .st27 {
        fill: #fff;
      }

      .st1 {
        fill: #3f51b5;
      }

      .st1, .st2, .st5, .st8 {
        stroke: #fff;
      }

      .st28 {
        fill: url(#linear-gradient1);
      }

      .st29, .st15, .st16, .st17, .st14, .st19, .st21 {
        font-weight: 700;
      }

      .st29, .st15, .st16, .st14, .st19, .st21 {
        font-family: Arial-BoldMT, Arial;
      }

      .st29, .st15, .st14, .st21 {
        font-size: 20px;
      }

      .st29, .st22 {
        fill: #9c27b0;
      }

      .st24, .st10 {
        stroke: #4caf50;
      }

      .st3, .st7 {
        stroke: #2196f3;
      }

      .st4 {
        fill: #fff3e0;
      }

      .st4, .st26 {
        stroke: #ff9800;
      }

      .st15, .st17 {
        fill: #2196f3;
      }

      .st5 {
        fill: #e91e63;
      }

      .st16, .st18, .st8, .st21 {
        fill: #4caf50;
      }

      .st30 {
        fill: url(#linear-gradient);
      }

      .st17 {
        font-family: Arial-BoldItalicMT, Arial;
      }

      .st17, .st20 {
        font-style: italic;
      }

      .st25 {
        stroke-miterlimit: 10;
      }

      .st25, .st9 {
        stroke: #9c27b0;
      }

      .st7 {
        fill: #e3f2fd;
      }

      .st19 {
        fill: #2c3e50;
        font-size: 28px;
      }

      .st9 {
        fill: #f3e5f5;
      }

      .st20 {
        fill: #231f20;
        font-family: Arial-ItalicMT, Arial;
        font-size: 18px;
      }

      .st31 {
        fill: #069;
      }

      .st10 {
        fill: #e8f5e9;
      }

      .st11 {
        fill: #b6b8ba;
        stroke: #231f20;
      }

      .st32 {
        fill: #555;
      }

      .st33 {
        fill: #0081fb;
      }
    </style>
    <linearGradient id="linear-gradient" x1="480.1" y1="460.6" x2="504.2" y2="459.4" gradientTransform="translate(0 600) scale(1 -1)" gradientUnits="userSpaceOnUse">
      <stop offset="0" stop-color="#0064e1"/>
      <stop offset=".4" stop-color="#0064e1"/>
      <stop offset=".8" stop-color="#0073ee"/>
      <stop offset="1" stop-color="#0082fb"/>
    </linearGradient>
    <linearGradient id="linear-gradient1" x1="477.6" y1="454.7" x2="477.6" y2="463.6" gradientTransform="translate(0 600) scale(1 -1)" gradientUnits="userSpaceOnUse">
      <stop offset="0" stop-color="#0082fb"/>
      <stop offset="1" stop-color="#0064e0"/>
    </linearGradient>
  </defs>
  <g>
    <line class="st6" x1="670" y1="355" x2="670" y2="318.9"/>
    <polygon class="st32" points="670 318.9 675 328.9 665 328.9 670 318.9"/>
  </g>
  <rect class="st9" x="589.8" y="353" width="289" height="130" rx="10" ry="10"/>
  <text class="st19" transform="translate(121.2 50)"><tspan x="0" y="0">SciValidate: A Modern Scientific Trust Framework</tspan></text>
  <rect class="st7" x="130" y="77.6" width="650" height="102.4" rx="10" ry="10"/>
  <text class="st15" transform="translate(286.7 102.3)"><tspan x="0" y="0">Modern Communication Platforms</tspan></text>
  <circle class="st3" cx="220" cy="140" r="25"/>
  <circle class="st3" cx="310" cy="140" r="25"/>
  <circle class="st3" cx="400" cy="140" r="25"/>
  <circle class="st3" cx="490" cy="140" r="25"/>
  <circle class="st3" cx="580" cy="140" r="25"/>
  <text class="st17" transform="translate(561.7 145)"><tspan x="0" y="0">News</tspan></text>
  <circle class="st3" cx="670" cy="140" r="25"/>
  <rect class="st10" x="44.2" y="220" width="699" height="100" rx="10" ry="10"/>
  <text class="st21" transform="translate(254.8 255)"><tspan x="0" y="0">SciValidate Reputation Layer</tspan></text>
  <g>
    <rect class="st24" x="63.7" y="269.8" width="150" height="30" rx="5" ry="5"/>
    <text class="st18" transform="translate(80 289.8)"><tspan x="0" y="0">Identity Verification</tspan></text>
  </g>
  <g>
    <rect class="st24" x="233.2" y="269.8" width="150" height="30" rx="5" ry="5"/>
    <text class="st18" transform="translate(235.9 289.8)"><tspan x="0" y="0">Expertise Classification</tspan></text>
  </g>
  <g>
    <rect class="st24" x="402.7" y="269.8" width="150" height="30" rx="5" ry="5"/>
    <text class="st18" transform="translate(414.3 289.8)"><tspan x="0" y="0">Ethical Commitment</tspan></text>
  </g>
  <line class="st6" x1="450" y1="220" x2="450" y2="180"/>
  <rect class="st4" x="73.7" y="355" width="491" height="130" rx="10" ry="10"/>
  <text class="st14" transform="translate(188.4 380)"><tspan x="0" y="0">SciValidate Seed Database</tspan></text>
  <rect class="st26" x="89.2" y="395" width="130" height="35" rx="5" ry="5"/>
  <text class="st13" transform="translate(114.5 418)"><tspan x="0" y="0">Researchers</tspan></text>
  <rect class="st25" x="597.6" y="395" width="130" height="35" rx="5" ry="5"/>
  <text class="st22" transform="translate(624.8 418)"><tspan x="0" y="0">Data-Linked</tspan></text>
  <rect class="st26" x="254.2" y="395" width="130" height="35" rx="5" ry="5"/>
  <text class="st13" transform="translate(281.4 418)"><tspan x="0" y="0">Publications</tspan></text>
  <rect class="st26" x="419.2" y="395" width="130" height="35" rx="5" ry="5"/>
  <text class="st13" transform="translate(465.5 418)"><tspan x="0" y="0">Fields</tspan></text>
  <rect class="st26" x="169.2" y="440" width="130" height="35" rx="5" ry="5"/>
  <text class="st13" transform="translate(181.3 463)"><tspan x="0" y="0">Expertise Scores</tspan></text>
  <rect class="st26" x="324.2" y="440" width="160" height="35" rx="5" ry="5"/>
  <text class="st13" transform="translate(335.3 463)"><tspan x="0" y="0">Collaboration Network</tspan></text>
  <line class="st0" x1="319.2" y1="355" x2="319.2" y2="315"/>
  <rect class="st11" x="40" y="525" width="558.3" height="50" rx="10" ry="10"/>
  <text class="st20" transform="translate(84.6 557)"><tspan x="0" y="0">Existing Data Sources (ORCID, OpenAlex, Publisher APIs)</tspan></text>
  <line class="st0" x1="319.2" y1="525" x2="319.2" y2="485"/>
  <polygon class="st32" points="450 180.1 455 190.1 445 190.1 450 180.1"/>
  <polygon class="st32" points="319.2 318.9 324.2 328.9 314.2 328.9 319.2 318.9"/>
  <polygon class="st32" points="319.2 492 324.2 502 314.2 502 319.2 492"/>
  <path d="M222.3,137.7l9.1-10.4h-2.2l-7.9,9-6.3-9h-7.3l9.5,13.6-9.5,10.9h2.2l8.3-9.5,6.7,9.5h7.3M210.7,128.9h3.3l15.2,21.3h-3.3"/>
  <path id="path14" class="st31" d="M296.8,128.6c0-1.1.9-1.9,2-1.9h22.5c1.1,0,2,.9,2,1.9v22.8c0,1.1-.9,1.9-2,1.9h-22.5c-1.1,0-2-.9-2-1.9v-22.8Z"/>
  <path id="path28" class="st23" d="M304.8,149v-12h-4v12h4ZM302.8,135.3c1.4,0,2.3-.9,2.3-2.1,0-1.2-.9-2.1-2.2-2.1s-2.3.9-2.3,2.1.9,2.1,2.2,2.1h0Z"/>
  <path id="path30" class="st23" d="M307,149h4v-6.7c0-.4,0-.7.1-1,.3-.7.9-1.5,2-1.5s2,1.1,2,2.7v6.4h4v-6.9c0-3.7-2-5.4-4.6-5.4s-3.1,1.2-3.6,2h0v-1.7h-4c0,1.1,0,12,0,12h0Z"/>
  <image width="1000" height="1000" transform="translate(374 113.5) scale(0)" xlink:href="../../../../../Downloads/substack.png"/>
  <path id="Logo0" class="st33" d="M476.3,143.7c0,1.3.3,2.4.7,3,.5.8,1.2,1.2,2,1.2s1.9-.2,3.6-2.6c1.4-1.9,3-4.6,4.1-6.3l1.9-2.9c1.3-2,2.8-4.2,4.5-5.7,1.4-1.2,2.9-1.9,4.4-1.9,2.6,0,5,1.5,6.9,4.3,2,3,3,6.9,3,10.8s-.5,4.1-1.3,5.4c-.8,1.3-2.2,2.6-4.7,2.6v-3.8c2.1,0,2.7-2,2.7-4.2,0-3.2-.7-6.8-2.4-9.3-1.2-1.8-2.7-2.9-4.4-2.9s-3.3,1.4-4.9,3.8c-.9,1.3-1.8,2.9-2.8,4.6l-1.1,1.9c-2.2,3.9-2.8,4.8-3.9,6.3-1.9,2.6-3.6,3.6-5.8,3.6s-4.2-1.1-5.2-2.8c-.8-1.4-1.2-3.2-1.2-5.2h3.8Z"/>
  <path id="Logo1" class="st30" d="M475.5,132.9c1.7-2.7,4.2-4.5,7.1-4.5s3.3.5,5,1.9c1.9,1.5,3.9,4.1,6.4,8.2l.9,1.5c2.2,3.6,3.4,5.5,4.1,6.3.9,1.1,1.6,1.5,2.4,1.5,2.1,0,2.7-2,2.7-4.2h3.3c0,2.2-.5,4-1.3,5.3-.8,1.3-2.2,2.6-4.7,2.6s-2.9-.3-4.5-1.8c-1.2-1.1-2.5-3.1-3.6-4.8l-3.1-5.2c-1.6-2.6-3-4.6-3.8-5.5-.9-1-2.1-2.1-3.9-2.1s-2.8,1-3.8,2.6l-3.2-1.9Z"/>
  <path id="Logo2" class="st28" d="M482.5,132.2c-1.5,0-2.8,1-3.8,2.6-1.5,2.3-2.4,5.6-2.4,8.9s.3,2.4.7,3l-3.2,2.1c-.8-1.4-1.2-3.2-1.2-5.2,0-3.7,1-7.6,3-10.6,1.7-2.7,4.2-4.5,7.1-4.5v3.8Z"/>
  <path class="st12" d="M658.9,153.8c-.5-.1-1-.4-1.4-.6-.4-.2-.9-.8-1.1-1.1-.2-.4-.5-1-.6-1.4-.1-.4-.1-.6-.1-11.2,0-10.5,0-10.8.1-11.2.4-1.6,1.7-2.8,3.3-3.2.5-.1,21.5-.1,22,0,1.4.3,2.5,1.1,3.1,2.4.5,1,.5,0,.5,11.7,0,7.5,0,10.6,0,11-.2,1.8-1.5,3.3-3.3,3.7-.5.1-.6.1-11.2.1-10.2,0-10.7,0-11.1-.1Z"/>
  <path class="st27" d="M674.2,148.4c1.3-.2,2.3-.7,3.3-1.7.7-.7,1.1-1.5,1.4-2.5.1-.4.1-.6.1-3.1,0-1.9,0-2.8,0-3,0-.3-.3-.6-.5-.7,0,0-.5,0-1-.1-.8,0-.9,0-1.1-.2-.4-.2-.5-.5-.5-1.2,0-1.3-.6-2.6-1.6-3.7-.8-.8-1.6-1.3-2.6-1.6-.2,0-.8,0-2.5-.1-2.8,0-3.4,0-4.3.4-1.7.7-3,2.2-3.5,4,0,.4-.1.9-.1,4.2,0,4.1,0,4.7.3,5.5.2.7.4,1.1.9,1.7.8,1.1,2.1,1.9,3.3,2.1.6.1,7.9.1,8.7,0h0Z"/>
  <path class="st12" d="M666.5,137.2c-.7-.2-.9-1.1-.4-1.6.3-.3.4-.3,2.4-.3s1.8,0,2.1.1c.4.2.5.5.5.9s-.2.7-.5.9c-.2.1-.3.1-2,.1-1.1,0-1.9,0-2,0ZM666.4,143.7c-.3-.1-.6-.5-.6-.8,0-.3.1-.7.3-.9.3-.3.4-.3,3.9-.3,3.6,0,3.6,0,3.9.3.5.4.4,1.2-.2,1.6h-.6c0,0-3.1.1-3.1.1-2.7,0-3.5,0-3.6,0Z"/>
  <g>
    <circle class="st8" cx="339.5" cy="200.1" r="15"/>
    <image width="40" height="40" transform="translate(319.5 180)" xlink:href="scivalidate-concept-1.png"/>
  </g>
  <g>
    <circle class="st2" cx="413.2" cy="200.1" r="15"/>
    <image width="40" height="40" transform="translate(393.2 179.8)" xlink:href="scivalidate-concept-2.png"/>
  </g>
  <g>
    <circle class="st5" cx="560.5" cy="200.1" r="15"/>
    <image width="40" height="40" transform="translate(541.1 180.3)" xlink:href="scivalidate-concept-3.png"/>
  </g>
  <g>
    <circle class="st1" cx="486.8" cy="200.1" r="15"/>
    <image width="40" height="40" transform="translate(466.8 179.8)" xlink:href="scivalidate-concept-4.png"/>
  </g>
  <rect class="st24" x="572.8" y="269.8" width="150" height="30" rx="5" ry="5"/>
  <text class="st16" transform="translate(583.3 289.8)"><tspan x="0" y="0">Reputation Scoring</tspan></text>
  <text class="st29" transform="translate(616.5 380.3)"><tspan x="0" y="0">Community Engagement</tspan></text>
  <polyline class="st6" points="829.5 351.2 829.5 128.9 780 128.9"/>
  <polygon class="st32" points="829.5 353 824.5 343 834.5 343 829.5 353"/>
  <rect class="st25" x="669.3" y="438.2" width="130" height="35" rx="5" ry="5"/>
  <text class="st22" transform="translate(705.2 461.2)"><tspan x="0" y="0">Objective</tspan></text>
  <rect class="st25" x="743.2" y="395" width="130" height="35" rx="5" ry="5"/>
  <text class="st22" transform="translate(770.8 418)"><tspan x="0" y="0">Transparent</tspan></text>
</svg>